<?xml version="1.0" standalone="no"?>
<!DOCTYPE svg PUBLIC "-//W3C//DTD SVG 20010904//EN"
 "http://www.w3.org/TR/2001/REC-SVG-20010904/DTD/svg10.dtd">
<svg version="1.0" xmlns="http://www.w3.org/2000/svg"
 width="260.000000pt" height="260.000000pt" viewBox="0 0 260.000000 260.000000"
 preserveAspectRatio="xMidYMid meet">
<metadata>
Created by potrace 1.11, written by Peter Selinger 2001-2013
</metadata>
<g transform="translate(0.000000,260.000000) scale(0.100000,-0.100000)"
fill="#000000" stroke="none">
<path d="M0 1300 l0 -1300 1300 0 1300 0 0 1300 0 1300 -1300 0 -1300 0 0
-1300z m1322 687 c61 -30 96 -65 130 -131 17 -32 23 -63 26 -147 l4 -106 -168
-289 c-92 -159 -178 -307 -191 -329 -33 -57 -29 -41 17 69 22 53 40 100 40
106 0 11 -267 14 -294 4 -14 -5 -16 -33 -16 -209 0 -112 -3 -210 -6 -219 -5
-13 -25 -16 -118 -16 -74 0 -116 4 -124 12 -18 18 -17 1259 1 1277 9 9 84 11
327 9 l315 -3 57 -28z m378 -147 c-22 -52 -40 -94 -40 -95 0 -1 35 -5 78 -8
42 -3 99 -14 126 -24 61 -23 131 -89 156 -149 22 -50 36 -167 26 -208 l-6 -26
-114 0 c-79 0 -117 4 -124 13 -5 6 -12 36 -14 66 -4 43 -11 60 -31 77 -32 27
-113 39 -204 30 -58 -6 -65 -5 -59 9 5 14 167 298 218 383 35 58 30 28 -12
-68z m-252 -573 c26 -29 70 -43 172 -56 257 -30 379 -97 427 -234 28 -81 25
-282 -6 -359 -29 -74 -98 -138 -178 -164 -82 -27 -399 -28 -484 -2 -74 23
-149 90 -179 160 -27 63 -40 199 -20 223 16 19 219 22 238 3 7 -7 12 -32 12
-55 0 -54 20 -95 55 -111 15 -7 72 -12 138 -12 123 0 145 8 172 60 19 37 19
123 0 159 -19 38 -84 68 -165 76 -84 8 -265 52 -310 75 -19 10 -45 29 -57 42
l-22 23 92 158 92 158 3 -63 c2 -41 9 -69 20 -81z"/>
<path d="M874 1787 c-2 -7 -3 -98 -2 -202 l3 -190 125 -3 c138 -3 188 6 210
40 19 30 27 237 11 296 -17 63 -42 72 -206 72 -101 0 -137 -3 -141 -13z"/>
</g>
</svg>
